<svg width="297" height="297" viewBox="0 0 297 297" fill="none" xmlns="http://www.w3.org/2000/svg">
<g filter="url(#filter0_d)">
<path d="M14.9484 0H114.604C122.859 0 129.552 6.69272 129.552 14.9484V194.328C129.551 202.583 122.859 209.276 114.603 209.276H14.9484C6.69271 209.276 0 202.583 0 194.328V14.9484C0 6.69272 6.69271 0 14.9484 0Z" transform="translate(163.448 79.7239)" fill="#2C3E50"/>
<path d="M129.551 0H0V144.5H129.551V0Z" transform="translate(163.448 109.621)" fill="#4482C3"/>
<path d="M44.8446 49.8277H34.8792C15.6252 49.8057 0.0220136 34.2025 0 14.9484V4.98299C0 2.23128 2.23072 0 4.98298 0C7.73525 0 9.96597 2.23072 9.96597 4.98299V14.9484C9.98234 28.7013 21.1269 39.8459 34.8798 39.8622H44.8452C58.598 39.8459 69.7426 28.7013 69.7589 14.9484V4.98299C69.7589 2.23128 71.9897 0 74.7419 0C77.4942 0 79.7249 2.23072 79.7249 4.98299V14.9484C79.7018 34.2025 64.0986 49.8057 44.8446 49.8277Z" transform="translate(188.362 164.431)" fill="#FF5364"/>
<path d="M9.9654 0H19.9308C25.4348 0 29.8962 4.46144 29.8962 9.96542V49.8277C29.8962 55.3316 25.4348 59.7931 19.9308 59.7931H9.9654C4.46143 59.7931 0 55.3311 0 49.8277V9.96542C0 4.462 4.46143 0 9.9654 0Z" transform="translate(213.276 129.552)" fill="#FFDA02"/>
<path d="M4.98298 34.8798C2.23128 34.8798 0 32.6491 0 29.8968V4.98299C0 2.23128 2.23072 0 4.98298 0C7.73469 0 9.96597 2.23072 9.96597 4.98299V29.8968C9.96597 32.6491 7.73525 34.8798 4.98298 34.8798Z" transform="translate(223.24 204.293)" fill="#FF5364"/>
<path d="M24.9138 9.96599H4.98298C2.23128 9.96599 0 7.73527 0 4.98299C0 2.23072 2.23072 0 4.98298 0H24.9138C27.6655 0 29.8968 2.23072 29.8968 4.98299C29.8968 7.73527 27.6655 9.96599 24.9138 9.96599Z" transform="translate(213.276 229.206)" fill="#FF5364"/>
<path d="M99.6551 0C44.5957 0 0 15.5958 0 34.8793V204.293C0 223.576 44.5957 239.172 99.6551 239.172C119.8 239.363 139.888 237.019 159.448 232.196V94.6723C159.448 86.4166 166.141 79.7239 174.396 79.7239H199.31V34.8793C199.31 15.5958 154.715 0 99.6551 0Z" transform="translate(4)" fill="#556080"/>
<path d="M99.6551 69.7585C154.693 69.7585 199.31 54.1425 199.31 34.8792C199.31 15.616 154.693 0 99.6551 0C44.6171 0 0 15.616 0 34.8792C0 54.1425 44.6171 69.7585 99.6551 69.7585Z" transform="translate(4)" fill="#2C3E50"/>
<path d="M69.7584 29.8968C108.285 29.8968 139.517 23.2042 139.517 14.9484C139.517 6.69263 108.285 0 69.7584 0C31.2319 0 0 6.69263 0 14.9484C0 23.2042 31.2319 29.8968 69.7584 29.8968Z" transform="translate(33.8967 19.9308)" fill="#35495E"/>
<path d="M159.448 27.9037V77.7314C139.888 82.5535 119.8 84.8971 99.6551 84.7075C44.5957 84.7069 0 69.1111 0 49.8277V0C0 19.2834 44.5957 34.8793 99.6551 34.8793C119.8 35.0695 139.888 32.7259 159.448 27.9037Z" transform="translate(4 154.465)" fill="#3D324C"/>
</g>
<defs>
<filter id="filter0_d" x="0" y="0" width="297" height="297" filterUnits="userSpaceOnUse" color-interpolation-filters="sRGB">
<feFlood flood-opacity="0" result="BackgroundImageFix"/>
<feColorMatrix in="SourceAlpha" type="matrix" values="0 0 0 0 0 0 0 0 0 0 0 0 0 0 0 0 0 0 255 0"/>
<feOffset dy="4"/>
<feGaussianBlur stdDeviation="2"/>
<feColorMatrix type="matrix" values="0 0 0 0 0 0 0 0 0 0 0 0 0 0 0 0 0 0 0.25 0"/>
<feBlend mode="normal" in2="BackgroundImageFix" result="effect1_dropShadow"/>
<feBlend mode="normal" in="SourceGraphic" in2="effect1_dropShadow" result="shape"/>
</filter>
</defs>
</svg>
